<svg xmlns="http://www.w3.org/2000/svg" viewBox="0 0 24 24">
  <path d="M12.9,9.8H3.3c-.7,0-1.3.6-1.3,1.3v9.6c0,.7.6,1.3,1.3,1.3h9.6c.7,0,1.3-.6,1.3-1.3v-9.6c0-.7-.6-1.3-1.3-1.3ZM11.6,19.4h-7v-7h7v7Z"/>
  <path d="M20.7,17.2c-.7,0-1.3.6-1.3,1.3v.9h-1.7c-.7,0-1.3.6-1.3,1.3s.6,1.3,1.3,1.3h2.2c1.2,0,2.2-1,2.2-2.2v-1.3c0-.7-.6-1.3-1.3-1.3Z"/>
  <path d="M20.7,9.4c-.7,0-1.3.6-1.3,1.3v2.6c0,.7.6,1.3,1.3,1.3s1.3-.6,1.3-1.3v-2.6c0-.7-.6-1.3-1.3-1.3Z"/>
  <path d="M19.8,2h-1.7c-.7,0-1.3.6-1.3,1.3s.6,1.3,1.3,1.3h1.3v1.3c0,.7.6,1.3,1.3,1.3s1.3-.6,1.3-1.3v-1.7c0-1.2-1-2.2-2.2-2.2Z"/>
  <path d="M13.3,2h-2.6c-.7,0-1.3.6-1.3,1.3s.6,1.3,1.3,1.3h2.6c.7,0,1.3-.6,1.3-1.3s-.6-1.3-1.3-1.3Z"/>
  <path d="M3.3,7.7c.7,0,1.3-.6,1.3-1.3v-1.7h.9c.7,0,1.3-.6,1.3-1.3s-.6-1.3-1.3-1.3h-1.3c-1.2,0-2.2,1-2.2,2.2v2.2c0,.7.6,1.3,1.3,1.3Z"/>
</svg>
